<?xml version="1.0" encoding="UTF-8" standalone="no"?>
<!-- Created with Inkscape (http://www.inkscape.org/) -->

<svg
   width="600"
   height="300"
   viewBox="0 0 600 300"
   id="svg3476"
   version="1.1"
   inkscape:version="1.3.2 (091e20e, 2023-11-25, custom)"
   sodipodi:docname="cssInject.svg"
   xml:space="preserve"
   xmlns:inkscape="http://www.inkscape.org/namespaces/inkscape"
   xmlns:sodipodi="http://sodipodi.sourceforge.net/DTD/sodipodi-0.dtd"
   xmlns="http://www.w3.org/2000/svg"
   xmlns:svg="http://www.w3.org/2000/svg"
   xmlns:rdf="http://www.w3.org/1999/02/22-rdf-syntax-ns#"
   xmlns:cc="http://creativecommons.org/ns#"
   xmlns:dc="http://purl.org/dc/elements/1.1/"><defs
     id="defs3478" /><sodipodi:namedview
     id="base"
     pagecolor="#ffffff"
     bordercolor="#666666"
     borderopacity="1.0"
     inkscape:pageopacity="0.0"
     inkscape:pageshadow="2"
     inkscape:zoom="1"
     inkscape:cx="280"
     inkscape:cy="157"
     inkscape:document-units="px"
     inkscape:current-layer="layer1"
     showgrid="false"
     fit-margin-top="0"
     fit-margin-left="0"
     fit-margin-right="0"
     fit-margin-bottom="0"
     inkscape:window-width="1920"
     inkscape:window-height="1018"
     inkscape:window-x="1072"
     inkscape:window-y="690"
     inkscape:window-maximized="1"
     inkscape:showpageshadow="2"
     inkscape:pagecheckerboard="true"
     inkscape:deskcolor="#d1d1d1" /><metadata
     id="metadata3481"><rdf:RDF><cc:Work
         rdf:about=""><dc:format>image/svg+xml</dc:format><dc:type
           rdf:resource="http://purl.org/dc/dcmitype/StillImage" /></cc:Work></rdf:RDF></metadata><g
     inkscape:label="Calque 1"
     inkscape:groupmode="layer"
     id="layer1"
     transform="translate(-193.633,-276.3622)"><rect
       style="fill:#264de4;fill-opacity:1;stroke:#0b3aa7;stroke-width:0;stroke-dasharray:none;stroke-opacity:1"
       id="rect20"
       width="600"
       height="300"
       x="193.633"
       y="276.36221"
       inkscape:label="background" /><g
       id="g19"
       style="fill:#000000;fill-opacity:0.1"
       inkscape:label="backgroundPattern"><rect
         style="fill:#000000;fill-opacity:0.1;stroke-width:1.32068"
         id="rect14"
         width="50"
         height="300"
         x="218.633"
         y="276.36221" /><rect
         style="fill:#000000;fill-opacity:0.1;stroke-width:1.32068"
         id="rect15"
         width="50"
         height="300"
         x="318.633"
         y="276.36221" /><rect
         style="fill:#000000;fill-opacity:0.1;stroke-width:1.32068"
         id="rect16"
         width="50"
         height="300"
         x="418.633"
         y="276.36221" /><rect
         style="fill:#000000;fill-opacity:0.1;stroke-width:1.32068"
         id="rect17"
         width="50"
         height="300"
         x="518.633"
         y="276.36221" /><rect
         style="fill:#000000;fill-opacity:0.1;stroke-width:1.32068"
         id="rect18"
         width="50"
         height="300"
         x="618.633"
         y="276.36221" /><rect
         style="fill:#000000;fill-opacity:0.1;stroke-width:1.32068"
         id="rect19"
         width="50"
         height="300"
         x="718.633"
         y="276.36221" /></g><path
       id="path8"
       style="color:#000000;fill:#ffffff;stroke:#000000;stroke-width:7.72934;stroke-dasharray:none;stroke-opacity:0.0985577;stroke-linejoin:round"
       d="m 101.86725,-2.8779358 c -1.04431,-0.00865 -2.062615,0.031889 -3.043425,0.1252998 l -2.110471,0.2022912 -2.054615,0.5132763 c -0.69373,0.1734335 -1.463047,0.4005349 -2.201049,0.6038543 -6.738125,0.86754365 -13.706653,1.50318804 -20.979411,1.82967878 H 36.196578 C 35.323881,0.26310338 34.78831,0.09755667 32.423998,0.09755667 H 30.210871 L 28.024919,0.4432633 C 29.033336,0.28403944 28.65098,-0.35509537 21.237595,1.3822569 17.530904,2.250933 10.641483,4.5563832 4.9682489,11.089216 4.8507974,11.224463 4.7879762,11.38254 4.6738699,11.519462 l -0.080011,0.006 0.013587,0.09209 c -5.33625213,6.462995 -7.0605673,14.678455 -7.0605673,19.675085 0,7.134484 1.0167856,7.855514 1.45528909,9.284261 0.43850353,1.428746 0.77523115,2.316354 1.06429334,3.088715 0.43066144,1.150708 0.54719869,1.448287 0.62347964,1.631916 -0.0489418,-0.482423 -0.0525549,-1.418936 -0.0845396,-2.080278 l 0.15096359,1.103544 c 0.0860016,0.630678 0.17063114,1.241778 0.25663815,1.870439 l 0.1962526,0.585738 0.3713705,0.898234 c 0.075079,0.182335 -0.1269715,0.357214 -0.3653319,-0.02868 0.4464954,3.255317 0.8923997,6.512025 1.339047,9.712997 l 0.078501,0.558566 0.099636,0.554036 c 0.8585419,4.755001 1.6641581,8.910707 4.1409314,14.483447 1.2383865,2.78637 2.8074358,6.109729 6.7978905,10.214197 3.104533,3.193234 8.794192,6.917425 15.570385,8.447923 -1.888401,1.762402 -3.700127,3.763109 -5.280706,6.246873 l -0.113223,0.179647 -0.111713,0.182666 c -5.02335,8.163008 -5.255939,25.435308 0.552527,34.147968 6.21164,9.31747 14.895206,12.46669 20.56728,13.7558 5.672073,1.2891 9.993155,1.23056 14.290213,0.99183 h 0.01661 0.01359 c 4.802546,-0.27184 8.931129,-0.68861 12.961734,-1.16393 1.622609,-0.0527 2.769855,-4.9e-4 3.031349,0.0257 l 0.12681,0.0136 0.128319,0.0121 c 5.014586,0.45586 9.006665,1.98304 19.524121,-2.06216 l 0.496671,-0.19173 0.490631,-0.20984 c 9.732239,-4.17095 20.220059,-19.38089 20.220059,-30.53842 0,-6.66384 -2.31407,-17.82497 -11.45058,-25.518889 -1.38006,-1.162153 -2.79808,-2.10913 -4.22547,-2.957376 -0.002,-0.513396 -0.006,-0.965581 -0.008,-1.462838 0.55071,0.03874 1.27312,0.233994 1.76929,0.233994 5.28187,0 12.87873,-0.611156 20.92959,-6.767698 8.05086,-6.156542 12.33675,-17.868692 12.33675,-25.306027 0,-3.692288 -0.28787,-5.35685 -0.60537,-7.333812 0.27235,-2.202838 0.55976,-4.373335 0.939,-6.032505 l -0.0589,0.24909 c 2.18857,-9.191851 -2.5168,-26.372757 -11.80082,-33.6331788 -6.20275,-4.75466409 -14.8045,-7.2958795 -22.11466,-7.356456 z M 37.825475,0.52478364 c -0.0041,-2.8149e-4 0.07953,0.005108 0.07548,0.004529 v 0.00151 c -0.01698,-0.002426 -0.05866,-0.003586 -0.07548,-0.006039 z"
       transform="matrix(1.2937722,0,0,1.2937722,407.0392,332.96645)"
       inkscape:label="path8"
       sodipodi:nodetypes="sccccccsccsscccsssccccccccccssccccssccccccccccssccsssccccscccc" /><path
       style="display:inline;fill:#ff4c4c;fill-opacity:1;stroke:#000000;stroke-width:0;stroke-linejoin:round;stroke-dasharray:none;stroke-opacity:0.0985577"
       d="m 477.633,343.3622 -45,2.5 -20.5,25.5 17.5,63.5 28.5,7.5 -15,29.5 3.5,27 18,13 41.5,1.5 23,-4 17.5,-20 2,-16.5 -20,-30 0.5,-11.5 22,-2 15,-11 8,-44.5 -8,-21 -14,-12.5 z"
       id="path3"
       inkscape:label="turbowarp-red-bg" /><path
       style="display:inline;fill:#2965f1;fill-opacity:1;stroke:#000000;stroke-width:0;stroke-linejoin:round;stroke-dasharray:none;stroke-opacity:0.0985577"
       id="path7"
       d="m 566.15345,357.51137 c 7.38628,-7.72785 -3.54256,-18.17364 -10.92884,-10.44578 v 0 c -0.11425,0.12094 -0.22851,0.24188 -0.34276,0.36282 0.0325,-0.0299 0.12406,-0.12478 0.0974,-0.0896 -0.0565,0.0746 -0.16192,0.1417 -0.212,0.21874 -0.86038,0.72503 -0.53784,0.51128 -1.3674,1.14521 -0.51995,0.42893 -1.00047,0.89628 -1.52751,1.30833 -0.50589,0.41663 -1.01363,0.8308 -1.51934,1.24761 -0.67702,0.59034 -1.32469,1.20936 -1.91914,1.88388 -0.68253,0.72424 -1.30648,1.49568 -1.96687,2.23952 -0.56134,0.6791 -1.13555,1.34577 -1.7394,1.98788 -0.5834,0.66571 -1.16253,1.33522 -1.73699,2.00858 -0.53066,0.61997 -1.04773,1.25124 -1.58025,1.86968 -0.71161,0.89589 -1.40038,1.81486 -1.97694,2.80507 -0.40303,0.58474 -0.77688,1.18651 -1.16449,1.78088 -0.69462,0.91193 -1.45451,1.77789 -2.01893,2.78308 -0.40289,0.68802 -0.78628,1.37586 -1.14175,2.09047 -0.12485,0.251 -0.26005,0.49944 -0.34809,0.76559 -0.0193,0.0582 0.0636,-0.10493 0.0953,-0.15739 0.11034,-0.15899 0.21982,-0.31858 0.33102,-0.47698 0.009,-0.013 -0.0152,0.0281 -0.0248,0.0408 -0.0962,0.12685 -0.19609,0.25092 -0.29257,0.37758 -0.4173,0.54782 -0.82006,1.10877 -1.16608,1.70494 -0.10088,0.17288 -0.20339,0.34483 -0.30265,0.51866 -0.0336,0.0588 -0.0653,0.11874 -0.0959,0.17923 -0.01,0.0198 -0.0428,0.0756 -0.0256,0.0615 0.0527,-0.0431 0.0891,-0.10306 0.13624,-0.15214 0.0415,-0.0432 0.16009,-0.17596 0.12957,-0.12444 -0.0378,0.0638 -0.10138,0.10828 -0.15206,0.16242 -0.43413,0.47253 -0.96811,0.84492 -1.45966,1.25449 -0.0918,0.12661 -1.10815,-2.9077 -1.38537,-2.71998 -0.45663,0.30925 -1.14474,0.79897 -1.59144,1.12445 -0.36066,0.26729 -0.72219,0.90472 -1.13626,1.07706 -0.66771,0.31195 -1.43338,0.0464 -2.15403,0.19709 -1.14741,0.2345 -2.08741,-0.57665 -3.25617,-0.49471 -1.72665,0.0855 -1.7625,1.59985 -3.47213,1.86429 -1.48391,0.18651 -3.18134,0.0217 -4.6389,0.38317 -1.21785,0.26167 -2.9137,-0.46021 -4.11547,-0.13228 -1.25372,0.38126 -2.89441,0.935 -4.11518,1.41136 -1.10018,0.50424 -1.71699,0.32745 -2.73429,0.98382 -0.57476,0.37898 -3.8904,0.84961 -4.47538,1.21326 -0.78084,0.54358 -1.61163,3.22299 -2.37822,3.78642 -1.08834,0.86331 0.71014,3.79104 -0.15344,4.88722 -0.93801,1.2385 -1.76977,2.5497 -2.34051,4.00206 -0.65144,1.52894 -1.22421,3.0891 -1.7148,4.67744 -0.47245,1.50246 -0.93896,3.01643 -1.15623,4.58111 -0.21156,1.52201 -0.32849,3.05845 -0.32295,4.59588 0.1098,1.91861 0.43861,3.80751 0.91077,5.67071 0.26796,1.01238 0.37571,1.49243 0.7429,2.52587 0.53323,1.50072 1.27259,2.92438 2.07298,4.29709 0.93528,1.56564 1.80024,3.186 2.93739,4.61852 0.92849,1.0972 1.84978,2.20042 2.79448,3.28378 0.42715,0.4752 0.89024,1.00041 1.33758,1.45114 1.0596,1.06763 2.24348,2.0055 3.52561,2.79235 1.00445,0.57181 1.07356,0.63488 2.09373,1.12553 1.32916,0.63925 2.70852,1.16228 4.04852,1.77759 1.77328,0.76202 3.53559,1.54939 5.3141,2.29933 1.42194,0.59161 2.84071,1.19411 4.28179,1.73756 43.35349,-8.28332 51.41749,-26.42583 45.30141,-80.36776 z"
       inkscape:label="paint"
       sodipodi:nodetypes="csscsccccccccccccsscccscsscssccscccccccccccccccccscccscscccc" /><g
       id="g1"
       transform="matrix(0.30845421,0,0,0.30845421,336.36134,280.1549)"
       inkscape:label="turbowarp-logo"
       style="display:inline"><g
         transform="matrix(4.1943736,0,0,4.1943736,229.13567,171.21359)"
         fill="none"
         stroke="#ffffff"
         stroke-width="56.4093"
         id="g4"><path
           id="path4"
           style="color:#000000;fill:#ffffff;stroke-width:0;stroke-dasharray:none"
           d="m 101.86725,-2.8779358 c -1.04431,-0.00865 -2.062615,0.031889 -3.043425,0.1252998 l -2.110471,0.2022912 -2.054615,0.5132763 c -0.69373,0.1734335 -1.463047,0.4005349 -2.201049,0.6038543 -6.738125,0.86754365 -13.706653,1.50318804 -20.979411,1.82967878 H 36.196578 C 35.323881,0.26310338 34.78831,0.09755667 32.423998,0.09755667 H 30.210871 L 28.024919,0.4432633 C 29.033336,0.28403944 28.65098,-0.35509537 21.237595,1.3822569 17.530904,2.250933 10.641483,4.5563832 4.9682489,11.089216 4.8507974,11.224463 4.7879762,11.38254 4.6738699,11.519462 l -0.080011,0.006 0.013587,0.09209 c -5.33625213,6.462995 -7.0605673,14.678455 -7.0605673,19.675085 0,7.134484 1.0167856,7.855514 1.45528909,9.284261 0.43850353,1.428746 0.77523115,2.316354 1.06429334,3.088715 0.43066144,1.150708 0.54719869,1.448287 0.62347964,1.631916 -0.0489418,-0.482423 -0.0525549,-1.418936 -0.0845396,-2.080278 l 0.15096359,1.103544 c 0.0860016,0.630678 0.17063114,1.241778 0.25663814,1.870439 l 0.1962526,0.585738 0.3713705,0.898234 c 0.075079,0.182335 -0.1269715,0.357214 -0.3653319,-0.02868 0.4464954,3.255317 0.8923997,6.512025 1.339047,9.712997 l 0.078501,0.558566 0.099636,0.554036 c 0.8585419,4.755001 1.6641581,8.910707 4.1409314,14.483447 1.2383865,2.78637 2.8074358,6.109729 6.7978906,10.214197 3.104533,3.193234 8.794192,6.917425 15.570385,8.447923 -1.888401,1.762402 -3.700127,3.763109 -5.280706,6.246873 l -0.113223,0.179647 -0.111713,0.182666 c -5.02335,8.163012 -5.255939,25.435312 0.552527,34.147972 6.21164,9.31747 14.895206,12.46669 20.56728,13.7558 5.672073,1.2891 9.993155,1.23056 14.290213,0.99183 h 0.01661 0.01359 c 4.802546,-0.27184 8.931129,-0.68861 12.961734,-1.16393 1.622609,-0.0527 2.769855,-4.9e-4 3.031349,0.0257 l 0.12681,0.0136 0.128319,0.0121 c 5.014586,0.45586 9.006665,1.98304 19.524121,-2.06216 l 0.496671,-0.19173 0.490631,-0.20984 c 9.732242,-4.17095 20.220062,-19.38089 20.220062,-30.53842 0,-6.66384 -2.31407,-17.824974 -11.45058,-25.518893 -1.38006,-1.162153 -2.79808,-2.10913 -4.22547,-2.957376 -0.002,-0.513396 -0.006,-0.965581 -0.008,-1.462838 0.55071,0.03874 1.27312,0.233994 1.76929,0.233994 5.28187,0 12.87873,-0.611156 20.92959,-6.767698 8.05086,-6.156542 12.33675,-17.868692 12.33675,-25.306027 0,-3.692288 -0.28787,-5.35685 -0.60537,-7.333812 0.27235,-2.202838 0.55976,-4.373335 0.939,-6.032505 l -0.0589,0.24909 c 2.18857,-9.191851 -2.5168,-26.372757 -11.80082,-33.6331788 -6.20275,-4.75466409 -14.8045,-7.2958795 -22.11466,-7.356456 z M 37.825475,0.52478364 c -0.0041,-2.8149e-4 0.07953,0.005108 0.07548,0.004529 v 0.00151 c -0.01698,-0.002426 -0.05866,-0.003586 -0.07548,-0.006039 z M 101.96689,11.220554 c 4.53632,0.02008 9.61454,1.548688 13.36178,4.448897 5.37591,4.164776 7.97526,13.560232 6.63485,19.190492 l 0.0302,-0.12379 c -0.61431,2.687592 -1.09062,5.7699 -1.43567,9.142355 0.008,0.137125 0.0186,0.358182 0.0876,0.74878 l 0.0302,0.178137 0.0272,0.179647 c 0.33865,2.257676 0.60234,3.702211 0.60234,6.25895 0,4.363756 -2.35369,10.70522 -6.80091,14.106038 -4.44722,3.400819 -8.87789,3.867688 -12.36241,3.867688 -4.774131,0 -12.464248,-2.476415 -16.264813,-8.648705 -9.2e-5,0.02593 -0.0015,0.02835 -0.0015,0.05435 l -0.0045,-0.0634 c -0.01095,-0.0178 -0.02233,-0.03346 -0.03321,-0.05133 0.247286,2.797151 0.305212,5.242018 0.371371,10.15985 0.07594,5.644581 0.113223,13.341912 0.113223,23.153286 v 0.534411 c 3.02851,0.411868 6.262151,1.463147 9.198211,3.935621 5.039668,4.243949 6.431048,10.484129 6.431048,14.734049 0,6.67047 -5.764317,15.0446 -11.672504,17.57669 l -0.244561,0.10417 -0.24758,0.0951 c -5.903759,2.27068 -9.041819,1.55733 -13.18667,1.18053 l -0.06491,-0.006 -0.0619,-0.008 c -1.120137,-0.11196 -2.854842,-0.16664 -5.036146,-0.0876 -3.903147,0.48936 -8.148305,0.89395 -13.157987,1.17751 l -0.0075,0.002 h -0.0075 c -3.488331,0.1938 -6.728475,0.16639 -10.383276,-0.66424 -3.6548,-0.83064 -8.554263,-2.72061 -11.957826,-7.82595 -3.301179,-4.95177 -3.18494,-14.20875 -0.276264,-18.93536 l 0.05586,-0.0921 0.05737,-0.0891 c 3.103391,-4.87675 7.765249,-7.235949 11.586456,-8.387543 0.584327,-0.176098 1.138315,-0.210278 1.711927,-0.347216 0.235616,-4.642775 0.267162,-11.55666 -0.0151,-20.77712 l -0.0015,-0.01661 v -0.01812 c -0.03854,-1.366996 -0.0077,-2.564531 -0.03623,-3.906938 -1.171122,1.509564 -2.457877,2.877782 -3.881274,3.73182 -4.034667,2.420801 -7.312731,2.566381 -9.972655,2.566381 -4.924771,0 -9.256379,-2.667013 -11.468704,-4.942548 C 21.4711,71.0801 20.477928,69.084415 19.660246,67.24463 18.024881,63.565057 17.262961,60.148157 16.511145,55.984255 l -0.04982,-0.279283 -0.03925,-0.277773 C 15.840913,51.263792 15.25903,47.049728 14.678227,42.79308 14.662843,42.72506 14.640648,42.617277 14.519715,42.323583 L 14.33554,41.875222 14.180047,41.413273 c -0.818443,-2.455332 -1.61531,-4.452578 -1.61531,-8.479625 0,-4.81314 2.781195,-10.824811 6.601638,-13.941488 3.820443,-3.116677 7.581062,-4.069847 10.956938,-4.60288 l 1.094486,-0.172098 h 1.106563 c 1.864654,0 2.508807,0.152225 3.48273,0.291359 0.04883,0.007 0.04462,0.0019 0.08907,0.006 h 14.88652 21.015642 c 8.100573,-0.357597 15.898715,-1.066576 23.441627,-2.071221 0.947097,-0.320116 1.826678,-0.554417 2.73697,-0.781991 l 1.028062,-0.256638 1.056747,-0.101146 c 0.62051,-0.0591 1.25711,-0.0859 1.90516,-0.08303 z M 57.973076,95.642415 c -0.01764,0.0031 -0.07512,0.03425 -0.0936,0.03774 0.08072,-6.98e-4 0.157603,-0.01164 0.238522,-0.01208 v -0.02415 c -0.08805,0.0032 -0.0074,-0.02535 -0.144925,-0.0015 z m 42.552104,6.357075 c 0.10232,1.29843 0,2.25443 0,2.67206 z m -14.20265,1.73457 v 0.9556 c 0,0.15963 0.181708,-0.13786 0,-0.9556 z" /></g><g
         transform="matrix(4.1943736,0,0,4.1943736,228.25358,197.35677)"
         fill="#ffffff"
         id="g6"><path
           d="m 108.34581,25.3789 q -1.19093,5.210345 -1.7864,11.313892 -0.14887,1.637537 0.29773,4.168276 0.4466,2.97734 0.4466,4.168276 0,3.870542 -5.06147,3.870542 -3.275078,0 -4.317148,-1.935271 -0.14887,-3.275074 0.14887,-8.93202 0.29773,-6.699015 0.29773,-8.93202 -0.14886,0 -0.4466,-0.297734 -13.84463,0.595468 -26.05172,1.786404 -0.29774,1.935271 0,4.763744 l 0.59546,5.359212 q -0.59546,4.614877 -0.59546,13.695765 0.4466,3.870542 0.4466,33.197344 V 98.4726 q 0,2.53074 0.74433,3.57281 h 9.22976 q 5.65694,-0.74434 5.65694,4.76374 0,3.27508 -3.1262,4.61488 -1.93528,0.74434 -6.84789,0.29774 -2.97734,-0.29774 -6.99675,-0.14887 -5.50808,0.74433 -13.39803,1.19093 -8.03881,0.44661 -9.825218,-2.233 -1.190936,-1.7864 0,-3.72168 2.084138,-3.27507 10.867288,-3.27507 4.61488,0 4.61488,-2.53074 0,-1.3398 -0.14887,-2.53074 0,-3.72168 0.14887,-6.55015 0.4466,-8.03882 0,-22.627784 -0.59547,-21.139115 0.4466,-37.961086 l -0.4466,-0.446601 q -4.61488,0.297734 -17.268572,-0.148867 -0.595468,0 -9.080887,0.595468 2.084138,14.291232 2.381872,20.394779 0,0 -0.297734,4.01941 -0.148867,2.233005 -3.721676,2.233005 -2.828473,0 -4.763744,-10.718425 -0.893202,-6.401281 -1.786404,-12.951429 0,-1.042069 -1.042069,-3.572808 -0.893202,-2.679606 -0.893202,-4.019409 0,-3.721675 5.656946,-4.614877 0.446601,0 1.48867,0.148867 1.042069,0.148867 1.48867,0.148867 h 15.48217 q 21.43685,0 21.43685,0 13.69576,-0.595468 26.49832,-2.381872 0.89321,-0.446601 2.679608,-0.893202 3.12621,-0.297735 5.35921,1.48867 2.23301,1.637537 1.48867,4.763744 z"
           fill="#ffffff"
           id="path6" /></g></g><path
       d="m 635.25308,376.91381 c -9.15485,9.15494 -15.90055,13.85278 -21.20079,15.65972 -1.56592,-4.8184 -4.21609,-9.27542 -7.95033,-13.00965 -3.8546,-3.73414 -8.31161,-6.38431 -13.13001,-8.07069 1.9274,-5.30024 6.62524,-12.04595 15.65972,-21.08033 21.68264,-21.80311 60.22954,-48.42462 67.57755,-41.07661 7.34801,7.34801 -19.27349,45.89491 -40.95614,67.57756 z m -39.97096,40.10775 c -3.58475,3.46362 -8.21025,5.25128 -12.83573,5.47473 v 0.11168 h -1.15642 c -30.99089,1.11729 -44.52047,-33.9655 -33.88179,-30.27842 13.99214,4.80426 19.66991,-2.12289 19.88964,-2.34634 7.74778,-7.37408 20.23662,-7.37408 27.9843,0 7.74777,7.48584 7.74777,19.66418 0,27.03825 z"
       id="path5"
       style="display:inline;fill:#ffffff;fill-rule:evenodd;stroke:#000000;stroke-width:10;stroke-linecap:round;stroke-linejoin:round;stroke-dasharray:none;stroke-opacity:0.0985577;paint-order:stroke fill markers"
       inkscape:label="brush-icon-body" /></g></svg>
